PathFileType  4	(X/Y/Z) C:\Users\antoi\Documents\MyRepositories\mobilecap\ResultsAnalysis
DataRate	CameraRate	NumFrames	NumMarkers	Units	OrigDataRate	OrigDataStartFrame	OrigNumFrames
100.0	100.0	4	51	mm	100.0	707	1413
Frame#	Time	r_knee			r_shank_antsup			r_ankle			r_calc			r_5meta			r_toe			L_knee			L_shank_antsup			L_ankle			L_calc			L_5meta			L_toe			r_sh2			r_sh3			r_sh4			L_sh2			L_sh3			r_thigh1			r_thigh2			r_thigh3			r_thigh4			r_thigh5			L_thigh1			L_thigh2			L_thigh3			L_thigh4			r.ASIS			r.PSIS			L.ASIS			L.PSIS			C7			R_Shoulder			L_Shoulder			R_Sternum			L_Sternum			R_humerus			R_elbow_med			R_elbow_lat			R_forearm			R_wrist_radius			R_wrist_ulna			L_humerus			L_elbow_med			L_elbow_lat			L_forearm			L_wrist_radius			L_wrist_ulna			R_HJC			L_HJC			R_HJC_reg			L_HJC_reg			
		X1	Y1	Z1	X2	Y2	Z2	X3	Y3	Z3	X4	Y4	Z4	X5	Y5	Z5	X6	Y6	Z6	X7	Y7	Z7	X8	Y8	Z8	X9	Y9	Z9	X10	Y10	Z10	X11	Y11	Z11	X12	Y12	Z12	X13	Y13	Z13	X14	Y14	Z14	X15	Y15	Z15	X16	Y16	Z16	X17	Y17	Z17	X18	Y18	Z18	X19	Y19	Z19	X20	Y20	Z20	X21	Y21	Z21	X22	Y22	Z22	X23	Y23	Z23	X24	Y24	Z24	X25	Y25	Z25	X26	Y26	Z26	X27	Y27	Z27	X28	Y28	Z28	X29	Y29	Z29	X30	Y30	Z30	X31	Y31	Z31	X32	Y32	Z32	X33	Y33	Z33	X34	Y34	Z34	X35	Y35	Z35	X36	Y36	Z36	X37	Y37	Z37	X38	Y38	Z38	X39	Y39	Z39	X40	Y40	Z40	X41	Y41	Z41	X42	Y42	Z42	X43	Y43	Z43	X44	Y44	Z44	X45	Y45	Z45	X46	Y46	Z46	X47	Y47	Z47	X48	Y48	Z48	X49	Y49	Z49	X50	Y50	Z50	X51	Y51	Z51	

707	7.06000000	-199.20199	546.68666	-500.30189	-157.96796	485.12232	-498.53280	-230.53648	146.92055	-447.81103	-295.03307	135.65526	-487.64313	-151.01669	56.98607	-400.14769	-89.40956	66.98667	-447.28280	-184.24124	545.32955	-915.47758	-152.86949	459.49514	-934.12328	-221.73058	150.85069	-945.29209	-286.92167	139.54896	-895.02861	-148.16600	51.43213	-993.96000	-95.15261	60.32728	-945.64636	-182.52244	377.46876	-457.77491	-236.81947	498.82284	-482.60322	-253.77641	387.85317	-460.33005	-241.31333	470.27092	-930.25658	-244.97892	349.20099	-950.35829	-173.12762	861.34379	-525.35755	-167.94619	751.48843	-511.02976	-223.23079	727.75476	-482.46181	-286.45046	856.05430	-514.32921	-275.53429	739.52404	-500.87788	-190.37662	815.53934	-936.04705	-164.53660	680.52458	-925.00104	-299.52393	796.35812	-894.66253	-266.98444	660.01390	-900.26372	-143.14984	990.63012	-588.02081	-299.94888	1090.57264	-672.18575	-135.30061	970.67939	-834.60911	-301.61008	1095.35153	-772.20481	-95.75372	1439.50856	-722.86279	-31.06706	1381.53411	-555.21131	-44.51917	1388.40163	-892.73522	28.90182	1361.54584	-702.44974	30.43170	1363.88703	-747.44031	-78.86871	1278.90332	-469.23982	-186.87000	1083.94348	-470.60269	-171.81794	1115.82461	-399.28383	-34.52091	1104.39567	-418.02653	87.22279	1090.99084	-448.97780	90.69674	1057.38163	-438.68384	-88.65794	1296.34146	-965.96652	-219.24443	1097.83858	-935.61955	-204.61218	1131.01811	-1013.68024	-97.99751	1103.66538	-1001.38471	37.63106	1049.38725	-987.17076	29.73095	1019.48076	-1002.78288	-242.18399	943.04175	-610.16259	-236.85943	934.04636	-816.36935	-231.12324	933.94044	-622.92666	-233.83297	941.73570	-786.07919	
708	7.07000000	-196.46696	545.76626	-499.34646	-155.67397	483.78198	-497.91945	-230.71369	146.47188	-447.13270	-295.37966	135.01927	-486.93584	-151.06741	56.44860	-399.81527	-89.54907	66.76930	-447.02143	-182.40028	544.11506	-915.85301	-151.42313	458.33857	-934.46086	-222.14732	150.01983	-945.61067	-287.66856	138.37891	-895.82057	-148.23660	50.76501	-994.10875	-95.42619	60.04312	-945.90545	-181.06306	376.47875	-457.17755	-234.50181	498.20855	-481.81972	-252.08149	387.40380	-459.56078	-239.84014	469.58983	-930.91346	-244.11692	348.61181	-951.14592	-171.51301	860.76454	-524.44919	-165.45180	750.68636	-510.34526	-220.69635	726.70390	-481.66851	-284.39698	854.79741	-513.68131	-272.95568	738.31294	-500.04604	-189.24189	814.44469	-936.78845	-163.05754	679.41236	-925.55780	-298.42845	794.64140	-894.83360	-265.54233	658.41994	-900.42805	-141.97260	989.48757	-588.22470	-299.44566	1088.74451	-672.28498	-134.43226	969.39563	-834.61991	-301.30059	1093.33655	-772.19771	-96.28359	1438.98954	-723.36273	-31.15551	1381.62703	-556.22344	-44.76332	1388.78582	-894.62369	28.70090	1361.51751	-703.17759	30.27496	1363.76664	-748.09549	-77.72286	1278.29663	-470.06221	-184.44656	1083.17624	-469.84206	-169.32978	1115.29888	-398.93032	-31.88676	1105.04009	-418.06126	89.82926	1092.80121	-448.97595	93.68558	1059.25866	-438.63458	-88.36686	1295.77520	-967.66345	-218.10183	1096.52222	-936.98848	-203.54532	1129.73867	-1014.72415	-96.67211	1103.19503	-1002.46979	39.05601	1049.63069	-988.25203	31.35243	1019.68732	-1003.86969	-240.88205	941.48503	-610.10946	-235.80758	932.29595	-816.31326	-229.75130	932.58479	-622.84820	-232.77846	940.07754	-785.88439	
709	7.08000000	-193.86800	544.58610	-498.53900	-153.33511	481.95113	-497.18807	-231.00821	145.86587	-446.31648	-295.91906	134.09754	-485.90503	-151.14639	55.86188	-399.41640	-89.78452	66.58207	-446.71343	-180.82429	542.72468	-916.29790	-150.14520	456.83569	-934.64823	-222.80635	149.03302	-946.22288	-288.70422	136.90042	-896.73137	-148.42853	50.12936	-994.44299	-95.79364	59.74035	-946.19748	-179.68492	375.20476	-456.64416	-232.25005	497.60621	-481.03156	-250.60126	386.80344	-458.83534	-238.51965	468.73073	-931.58889	-243.44318	347.74476	-951.96733	-170.41075	860.33181	-523.26582	-163.29179	749.81314	-509.37019	-218.53796	725.49499	-481.03960	-282.87812	853.17848	-513.36226	-270.79117	736.90331	-499.37781	-188.60186	813.01373	-937.25949	-162.03244	677.96464	-926.03052	-297.69743	792.69534	-894.92438	-264.39585	656.63512	-900.52376	-140.75933	986.86342	-588.78873	-299.19268	1086.68776	-672.35044	-133.76782	967.64392	-834.97649	-301.13324	1091.09616	-772.23263	-96.54904	1437.99502	-724.14968	-31.09551	1381.08942	-557.22209	-44.86269	1388.35445	-896.14464	28.55978	1360.99593	-703.88778	30.15219	1363.08455	-748.70979	-76.75131	1277.53574	-470.63965	-181.78634	1081.67152	-469.26424	-166.97157	1114.22588	-398.71465	-29.47275	1105.03131	-418.29981	92.27770	1093.92021	-448.92351	96.48465	1060.47523	-438.39310	-88.05939	1294.64714	-969.10004	-217.13072	1094.70255	-938.43929	-202.61457	1128.10541	-1015.65010	-95.54826	1102.15966	-1003.33641	40.27995	1049.23065	-989.24010	32.72634	1019.25570	-1004.97091	-239.94491	939.01762	-610.55573	-235.19377	930.33452	-816.78834	-228.84931	930.79162	-623.22780	-232.01359	937.97927	-786.08407	
710	7.09000000	-191.47155	543.39098	-497.74679	-151.30169	480.20206	-496.39788	-231.48037	145.03083	-445.64004	-296.68172	132.89571	-484.97268	-151.34499	55.26143	-398.92627	-90.15514	66.36916	-446.48104	-179.64272	541.17304	-916.75502	-149.17721	455.13282	-934.89068	-223.80383	147.89236	-946.94581	-290.03962	135.07390	-897.56096	-148.76610	49.51612	-994.90686	-96.30563	59.48025	-946.36573	-178.38679	373.93459	-455.99032	-230.12282	496.87908	-480.08449	-249.52588	385.97036	-458.18706	-237.45753	467.68692	-932.17172	-243.12531	346.62875	-952.49856	-169.10273	859.35043	-522.62217	-161.64177	748.82014	-508.40833	-216.84918	724.30438	-480.46635	-281.78627	851.38100	-513.35279	-269.12431	735.36625	-498.88766	-188.45139	811.49921	-937.79746	-161.51596	676.33240	-926.54734	-297.29407	790.80491	-895.14341	-263.64470	654.82494	-900.51694	-139.49202	983.19862	-589.45634	-299.07870	1084.54839	-672.27838	-133.75490	965.40175	-834.97534	-301.13734	1088.78157	-772.33799	-96.64385	1436.62491	-725.20442	-30.82882	1380.15022	-557.96990	-44.92152	1386.96606	-896.94164	28.54574	1360.04645	-704.64697	30.06231	1361.99156	-749.39590	-76.01325	1276.61098	-471.02859	-179.17190	1079.65232	-468.89057	-164.77530	1112.87312	-398.46831	-27.35773	1104.61332	-418.43485	94.55858	1094.40769	-448.92341	99.01145	1061.03090	-438.28950	-87.86379	1292.81270	-969.72798	-216.41747	1092.49259	-939.56504	-201.83479	1126.21104	-1016.52325	-94.67519	1100.59045	-1004.04067	41.24971	1048.24856	-990.19472	33.80299	1018.17392	-1005.93877	-239.46000	936.10803	-610.98653	-235.23235	928.09434	-817.25733	-228.36844	928.77686	-623.59957	-231.70749	935.64520	-785.93465	
